HIERARCHY
ROOT Hips
{
  OFFSET 0.0000 94.0000 0.0000
  CHANNELS 6 Xposition Yposition Zposition Yrotation Xrotation Zrotation
  JOINT Spine
  {
    OFFSET 0.0000 12.9947 0.0000
    CHANNELS 3 Yrotation Xrotation Zrotation
    JOINT Spine1
    {
      OFFSET 0.0000 12.7099 0.0000
      CHANNELS 3 Yrotation Xrotation Zrotation
      JOINT Spine2
      {
        OFFSET 0.0000 12.7829 0.0000
        CHANNELS 3 Yrotation Xrotation Zrotation
        JOINT LeftShoulder
        {
          OFFSET 7.0401 10.4351 0.0000
          CHANNELS 3 Yrotation Xrotation Zrotation
          JOINT LeftArm
          {
            OFFSET 0.0000 13.4599 0.0000
            CHANNELS 3 Yrotation Xrotation Zrotation
            JOINT LeftForeArm
            {
              OFFSET -0.0001 26.1001 0.0000
              CHANNELS 3 Yrotation Xrotation Zrotation
              JOINT LeftHand
              {
                OFFSET 0.0000 28.9001 0.0000
                CHANNELS 3 Yrotation Xrotation Zrotation
                JOINT LeftHandIndex1
                {
                  OFFSET -2.5612 8.0739 0.1030
                  CHANNELS 3 Yrotation Xrotation Zrotation
                  JOINT LeftHandIndex2
                  {
                    OFFSET 0.0000 4.5805 0.0000
                    CHANNELS 3 Yrotation Xrotation Zrotation
                    JOINT LeftHandIndex3
                    {
                      OFFSET 0.0000 2.8180 0.0000
                      CHANNELS 3 Yrotation Xrotation Zrotation
                      End Site
                      {
                        OFFSET 0.0000 1.3566 0.0000
                      }
                    }
                  }
                }
                JOINT LeftHandMiddle1
                {
                  OFFSET -0.5450 8.1365 0.1030
                  CHANNELS 3 Yrotation Xrotation Zrotation
                  JOINT LeftHandMiddle2
                  {
                    OFFSET 0.0000 4.7024 0.0000
                    CHANNELS 3 Yrotation Xrotation Zrotation
                    JOINT LeftHandMiddle3
                    {
                      OFFSET 0.0000 3.1016 0.0000
                      CHANNELS 3 Yrotation Xrotation Zrotation
                      End Site
                      {
                        OFFSET 0.0000 1.4991 0.0000
                      }
                    }
                  }
                }
                JOINT LeftHandPinky1
                {
                  OFFSET 3.1368 7.0180 0.1030
                  CHANNELS 3 Yrotation Xrotation Zrotation
                  JOINT LeftHandPinky2
                  {
                    OFFSET 0.0000 3.5540 0.0000
                    CHANNELS 3 Yrotation Xrotation Zrotation
                    JOINT LeftHandPinky3
                    {
                      OFFSET 0.0000 2.2339 0.0000
                      CHANNELS 3 Yrotation Xrotation Zrotation
                      End Site
                      {
                        OFFSET 0.0000 1.1205 0.0000
                      }
                    }
                  }
                }
                JOINT LeftHandRing1
                {
                  OFFSET 1.4405 7.8067 0.1031
                  CHANNELS 3 Yrotation Xrotation Zrotation
                  JOINT LeftHandRing2
                  {
                    OFFSET 0.0000 4.3922 0.0000
                    CHANNELS 3 Yrotation Xrotation Zrotation
                    JOINT LeftHandRing3
                    {
                      OFFSET 0.0000 2.8327 0.0000
                      CHANNELS 3 Yrotation Xrotation Zrotation
                      End Site
                      {
                        OFFSET 0.0000 1.3500 0.0000
                      }
                    }
                  }
                }
                JOINT LeftHandThumb1
                {
                  OFFSET -3.7710 1.6803 0.0975
                  CHANNELS 3 Yrotation Xrotation Zrotation
                  JOINT LeftHandThumb2
                  {
                    OFFSET 1.0516 3.8183 0.0000
                    CHANNELS 3 Yrotation Xrotation Zrotation
                    JOINT LeftHandThumb3
                    {
                      OFFSET 0.0000 3.0072 0.0000
                      CHANNELS 3 Yrotation Xrotation Zrotation
                      End Site
                      {
                        OFFSET 0.0000 1.7295 0.0000
                      }
                    }
                  }
                }
              }
            }
          }
        }
        JOINT Neck
        {
          OFFSET 0.0000 18.2093 0.0000
          CHANNELS 3 Yrotation Xrotation Zrotation
          JOINT Head
          {
            OFFSET 0.0000 11.0335 0.0000
            CHANNELS 3 Yrotation Xrotation Zrotation
            End Site
            {
              OFFSET 0.0000 8.0220 0.0000
            }
          }
        }
        JOINT RightShoulder
        {
          OFFSET -7.0401 10.4351 0.0000
          CHANNELS 3 Yrotation Xrotation Zrotation
          JOINT RightArm
          {
            OFFSET 0.0000 13.4599 0.0000
            CHANNELS 3 Yrotation Xrotation Zrotation
            JOINT RightForeArm
            {
              OFFSET 0.0000 26.1001 0.0000
              CHANNELS 3 Yrotation Xrotation Zrotation
              JOINT RightHand
              {
                OFFSET -0.0001 28.9001 0.0000
                CHANNELS 3 Yrotation Xrotation Zrotation
                JOINT RightHandIndex1
                {
                  OFFSET 2.5611 8.0740 0.1030
                  CHANNELS 3 Yrotation Xrotation Zrotation
                  JOINT RightHandIndex2
                  {
                    OFFSET 0.0000 4.5806 -0.0001
                    CHANNELS 3 Yrotation Xrotation Zrotation
                    JOINT RightHandIndex3
                    {
                      OFFSET 0.0000 2.8181 0.0000
                      CHANNELS 3 Yrotation Xrotation Zrotation
                      End Site
                      {
                        OFFSET 0.0000 1.3566 0.0000
                      }
                    }
                  }
                }
                JOINT RightHandMiddle1
                {
                  OFFSET 0.5450 8.1366 0.1030
                  CHANNELS 3 Yrotation Xrotation Zrotation
                  JOINT RightHandMiddle2
                  {
                    OFFSET 0.0000 4.7025 0.0000
                    CHANNELS 3 Yrotation Xrotation Zrotation
                    JOINT RightHandMiddle3
                    {
                      OFFSET 0.0000 3.1016 0.0000
                      CHANNELS 3 Yrotation Xrotation Zrotation
                      End Site
                      {
                        OFFSET 0.0000 1.4991 0.0000
                      }
                    }
                  }
                }
                JOINT RightHandPinky1
                {
                  OFFSET -3.1368 7.0181 0.1030
                  CHANNELS 3 Yrotation Xrotation Zrotation
                  JOINT RightHandPinky2
                  {
                    OFFSET 0.0000 3.5541 0.0000
                    CHANNELS 3 Yrotation Xrotation Zrotation
                    JOINT RightHandPinky3
                    {
                      OFFSET 0.0000 2.2340 0.0000
                      CHANNELS 3 Yrotation Xrotation Zrotation
                      End Site
                      {
                        OFFSET 0.0000 1.1205 0.0000
                      }
                    }
                  }
                }
                JOINT RightHandRing1
                {
                  OFFSET -1.4405 7.8068 0.1030
                  CHANNELS 3 Yrotation Xrotation Zrotation
                  JOINT RightHandRing2
                  {
                    OFFSET 0.0000 4.3923 -0.0001
                    CHANNELS 3 Yrotation Xrotation Zrotation
                    JOINT RightHandRing3
                    {
                      OFFSET 0.0000 2.8327 0.0000
                      CHANNELS 3 Yrotation Xrotation Zrotation
                      End Site
                      {
                        OFFSET 0.0000 1.3500 0.0000
                      }
                    }
                  }
                }
                JOINT RightHandThumb1
                {
                  OFFSET 3.7710 1.6071 0.0975
                  CHANNELS 3 Yrotation Xrotation Zrotation
                  JOINT RightHandThumb2
                  {
                    OFFSET -1.0904 3.8813 -0.0001
                    CHANNELS 3 Yrotation Xrotation Zrotation
                    JOINT RightHandThumb3
                    {
                      OFFSET 0.0000 3.0072 -0.0001
                      CHANNELS 3 Yrotation Xrotation Zrotation
                      End Site
                      {
                        OFFSET 0.0000 1.7295 0.0000
                      }
                    }
                  }
                }
              }
            }
          }
        }
      }
    }
  }
  JOINT LeftUpLeg
  {
    OFFSET 8.1000 0.0000 0.0000
    CHANNELS 3 Yrotation Xrotation Zrotation
    JOINT LeftLeg
    {
      OFFSET 0.0000 43.2000 0.0000
      CHANNELS 3 Yrotation Xrotation Zrotation
      JOINT LeftFoot
      {
        OFFSET 0.0000 43.3000 0.0000
        CHANNELS 3 Yrotation Xrotation Zrotation
        JOINT LeftToeBase
        {
          OFFSET 0.0000 14.5727 0.0000
          CHANNELS 3 Yrotation Xrotation Zrotation
          End Site
          {
            OFFSET 0.0000 3.5000 0.0000
          }
        }
      }
    }
  }
  JOINT RightUpLeg
  {
    OFFSET -8.1000 0.0000 0.0000
    CHANNELS 3 Yrotation Xrotation Zrotation
    JOINT RightLeg
    {
      OFFSET 0.0000 43.2000 0.0000
      CHANNELS 3 Yrotation Xrotation Zrotation
      JOINT RightFoot
      {
        OFFSET 0.0000 43.3000 0.0000
        CHANNELS 3 Yrotation Xrotation Zrotation
        JOINT RightToeBase
        {
          OFFSET 0.0000 14.5727 0.0000
          CHANNELS 3 Yrotation Xrotation Zrotation
          End Site
          {
            OFFSET 0.0000 3.5000 0.0000
          }
        }
      }
    }
  }
}
MOTION
Frames: 8
Frame Time: 0.033333
0.6264 95.8555 -16.4614 13.6739 6.4965 5.9129 0.0000 0.0000 0.0000 0.0000 0.0000 0.0000 -23.9894 0.0000 0.0000 -270.0000 90.0000 0.0000 -0.5163 0.7127 -18.9407 -0.1223 -2.2967 6.1376 0.0000 0.0000 0.0000 4.4556 17.5008 8.6883 0.0000 18.0001 0.0000 0.0000 17.9987 -0.0008 0.0000 17.9996 5.4001 0.0000 18.0000 0.0000 0.0001 18.0000 0.0001 -22.7691 18.0024 -13.2938 -0.0003 17.9994 0.0004 -0.0001 18.0004 -0.0006 -11.4059 19.2849 -1.9366 0.0000 18.0000 0.0000 0.0000 17.9990 -0.0001 7.8154 17.2299 40.9626 -3.7945 -4.3941 -23.7935 -0.3550 6.3509 -6.3901 0.0000 0.0000 0.0000 17.9602 -17.9741 -7.0587 270.0001 90.0000 0.0000 85.9264 29.8878 6.7095 0.0000 0.0000 -26.9934 0.0000 0.0000 0.0000 -4.4558 17.5007 -8.6881 0.0000 18.0000 0.0000 0.0000 17.9993 0.0002 0.0000 17.9999 -5.3999 0.0000 18.0000 0.0000 0.0000 18.0000 0.0000 22.7693 18.0026 13.2939 0.0000 17.9989 0.0001 -0.0001 17.9992 0.0002 11.4057 19.2849 1.9367 0.0000 18.0000 0.0000 0.0000 17.9992 0.0000 -7.8081 17.2411 -41.2485 3.8538 -4.4546 24.0796 0.3549 6.3508 6.3902 4.7524 -1.8193 -177.2722 0.0112 0.0001 0.0000 -2.1400 57.3014 -2.6500 0.0000 25.0603 1.3374 -8.8243 5.9607 177.2442 -0.0056 -3.3659 -0.0309 8.0327 64.1210 9.2456 0.0000 37.7688 1.2078 
0.5365 95.9896 -15.4631 13.7938 7.0816 5.9304 0.0000 0.0000 0.0000 0.0000 0.0000 0.0000 -24.1820 0.0000 0.0000 -270.0000 90.0000 0.0000 1.0020 -9.6206 -23.0884 -0.1704 -3.2767 5.9852 0.0000 0.0000 0.0000 4.4556 17.5008 8.6883 0.0000 18.0000 0.0000 0.0000 17.9987 -0.0008 0.0000 17.9996 5.4001 0.0000 18.0000 0.0000 0.0001 18.0000 0.0001 -22.7691 18.0024 -13.2938 -0.0002 17.9994 0.0003 0.0000 18.0004 -0.0006 -11.4059 19.2849 -1.9366 0.0000 18.0000 0.0000 0.0000 17.9990 -0.0001 7.8154 17.2298 40.9625 -3.7944 -4.3940 -23.7934 -0.3550 6.3509 -6.3901 0.0000 0.0000 0.0000 18.1643 -18.5344 -7.0851 270.0001 90.0000 0.0000 89.8806 29.7201 -0.9925 0.0000 0.0000 -25.1360 0.0000 0.0000 0.0000 -4.4558 17.5007 -8.6881 0.0000 18.0000 -0.0001 0.0000 17.9994 0.0002 0.0000 17.9999 -5.3999 0.0000 18.0000 0.0000 0.0000 18.0000 0.0000 22.7693 18.0026 13.2939 0.0000 17.9989 0.0001 0.0000 17.9992 0.0002 11.4057 19.2849 1.9367 0.0000 18.0000 0.0000 0.0000 17.9992 0.0000 -7.8081 17.2412 -41.2484 3.8538 -4.4546 24.0794 0.3549 6.3508 6.3902 5.3153 -1.8816 -177.1539 0.0108 0.0000 0.0000 -2.1062 57.4215 -2.5972 0.0000 25.0416 1.3860 -9.5544 7.6259 177.3632 -0.0064 0.0001 0.0001 7.6413 62.6202 8.8651 0.0000 36.1191 1.0160 
0.3768 96.1515 -14.6895 13.9916 7.4812 5.9321 0.0000 0.0000 0.0000 0.0000 0.0000 0.0000 -24.2819 0.0000 0.0000 -270.0000 90.0000 0.0000 2.8490 -19.6998 -26.3835 -0.2405 -4.4845 6.1650 0.0000 0.0000 0.0000 4.4556 17.5008 8.6883 0.0000 18.0000 0.0000 0.0000 17.9987 -0.0008 0.0000 17.9996 5.4001 0.0000 18.0000 0.0001 0.0001 18.0000 0.0001 -22.7691 18.0024 -13.2938 -0.0003 17.9994 0.0003 -0.0001 18.0004 -0.0006 -11.4059 19.2848 -1.9366 0.0000 18.0000 0.0000 0.0000 17.9991 -0.0001 7.8155 17.2300 40.9626 -3.7943 -4.3945 -23.7934 -0.3550 6.3509 -6.3901 0.0000 0.0000 0.0000 18.1758 -18.8834 -7.1064 270.0001 90.0000 0.0000 88.7271 30.5784 -10.2118 0.3695 -1.9462 -24.2558 0.0000 0.0000 0.0000 -4.4557 17.5007 -8.6880 0.0000 18.0000 0.0000 0.0000 17.9994 0.0002 0.0000 17.9999 -5.3999 0.0000 18.0000 0.0000 0.0000 18.0000 0.0000 22.7693 18.0026 13.2939 0.0000 17.9989 0.0001 -0.0001 17.9992 0.0002 11.4057 19.2849 1.9367 0.0000 18.0000 0.0000 0.0000 17.9992 0.0000 -7.8081 17.2411 -41.2484 3.8537 -4.4546 24.0792 0.3549 6.3508 6.3902 5.7781 -1.9324 -177.0030 0.0104 0.0001 0.0000 -2.0255 57.5063 -2.4879 0.0000 25.0263 1.4390 -9.8311 7.6645 177.5730 -0.0065 0.0001 0.0001 7.7347 62.6667 8.9790 0.0000 34.2127 0.8075 
0.1736 96.3575 -14.1964 14.3261 7.7237 5.9324 0.0000 0.0000 0.0000 0.0000 0.0000 0.0000 -24.2756 0.0000 0.0000 -270.0000 90.0000 0.0000 4.4823 -29.2444 -28.2057 -0.3287 -5.9643 6.3439 0.0000 0.0000 0.0000 4.4556 17.5008 8.6883 0.0000 18.0000 0.0000 0.0000 17.9987 -0.0008 0.0000 17.9996 5.4001 0.0000 18.0000 0.0000 0.0001 18.0000 0.0001 -22.7691 18.0024 -13.2938 -0.0003 17.9994 0.0003 0.0000 18.0004 -0.0006 -11.4059 19.2849 -1.9366 0.0000 18.0000 0.0000 0.0000 17.9990 -0.0001 7.8155 17.2299 40.9626 -3.7944 -4.3942 -23.7934 -0.3550 6.3509 -6.3901 0.0000 0.0000 0.0000 17.9020 -19.0641 -7.1075 270.0001 90.0000 0.0000 92.8450 33.2426 -15.5995 0.3929 -2.1087 -24.1773 0.0000 0.0000 0.0000 -4.4558 17.5007 -8.6881 0.0000 18.0000 0.0000 0.0000 17.9993 0.0002 -0.0001 17.9999 -5.3999 0.0000 18.0000 0.0000 0.0000 18.0000 0.0000 22.7693 18.0026 13.2939 0.0000 17.9989 0.0001 -0.0001 17.9992 0.0002 11.4057 19.2849 1.9367 0.0000 18.0000 0.0000 0.0000 17.9991 0.0000 -7.8080 17.2411 -41.2483 3.8537 -4.4546 24.0791 0.3549 6.3508 6.3902 6.0126 -2.0369 -176.8507 0.0100 0.0001 0.0000 -1.8785 57.4970 -2.3007 0.0000 25.0140 1.4918 -9.8190 7.6890 177.8226 -0.0070 0.0001 0.0001 7.7420 62.5690 9.0174 0.0000 32.3705 0.6056 
-0.0462 96.6130 -13.9803 14.8525 7.8964 5.9490 0.0000 0.0000 0.0000 0.0000 0.0000 0.0000 -24.1845 0.0000 0.0000 -270.0000 90.0000 0.0000 5.3350 -38.0522 -27.8978 -0.4039 -7.6104 6.1389 0.0000 0.0000 0.0000 4.4556 17.5008 8.6883 0.0000 18.0000 0.0000 0.0000 17.9987 -0.0008 0.0000 17.9996 5.4001 0.0000 18.0001 0.0000 0.0001 18.0000 0.0001 -22.7691 18.0024 -13.2938 -0.0003 17.9994 0.0003 -0.0001 18.0004 -0.0006 -11.4059 19.2849 -1.9366 0.0000 18.0000 0.0000 0.0000 17.9990 -0.0001 7.8155 17.2299 40.9626 -3.7944 -4.3944 -23.7935 -0.3550 6.3509 -6.3902 0.0000 0.0000 0.0000 17.2855 -19.1856 -7.0729 270.0001 90.0000 0.0000 101.2244 38.3364 -17.0947 0.1905 -1.0209 -24.5959 0.0000 0.0000 0.0000 -4.4558 17.5007 -8.6881 0.0000 18.0000 0.0000 0.0000 17.9994 0.0002 0.0000 17.9999 -5.3999 0.0000 18.0000 0.0000 0.0000 18.0000 0.0000 22.7693 18.0026 13.2939 0.0000 17.9989 0.0001 0.0000 17.9992 0.0002 11.4057 19.2849 1.9367 0.0000 18.0000 0.0000 0.0000 17.9992 0.0000 -7.8081 17.2411 -41.2485 3.8538 -4.4546 24.0795 0.3549 6.3508 6.3902 5.9203 -2.2791 -176.7284 0.0098 0.0000 0.0000 -1.6363 57.3452 -2.0013 0.0000 25.0025 1.5440 -9.6594 7.6064 178.0939 -0.0077 0.0000 0.0001 7.6302 62.3338 8.9428 0.0000 30.5915 0.3980 
-0.2590 96.9124 -14.0369 15.5841 8.0820 5.9928 0.0000 0.0000 0.0000 0.0000 0.0000 0.0000 -24.0428 0.0000 0.0000 -270.0000 90.0000 0.0000 5.2306 -45.7515 -25.2423 -0.4028 -9.1301 5.1515 0.0000 0.0000 0.0000 4.4556 17.5008 8.6883 0.0000 18.0001 0.0000 0.0000 17.9987 -0.0008 0.0000 17.9996 5.4001 0.0000 18.0001 0.0000 0.0001 18.0000 0.0001 -22.7691 18.0024 -13.2938 -0.0003 17.9994 0.0004 0.0000 18.0004 -0.0006 -11.4059 19.2849 -1.9366 0.0000 18.0000 0.0000 0.0000 17.9991 -0.0001 7.8155 17.2299 40.9626 -3.7945 -4.3942 -23.7935 -0.3550 6.3509 -6.3901 0.0000 0.0000 0.0000 16.3325 -19.3472 -6.9925 270.0000 90.0000 0.0000 110.4025 44.3802 -16.0699 0.0000 0.0000 -25.3059 0.0000 0.0000 0.0000 -4.4558 17.5007 -8.6881 0.0000 18.0000 0.0000 0.0000 17.9994 0.0002 0.0000 17.9999 -5.3999 0.0000 18.0000 0.0000 0.0000 18.0000 0.0000 22.7693 18.0026 13.2939 0.0000 17.9989 0.0001 0.0000 17.9992 0.0002 11.4057 19.2849 1.9367 0.0000 18.0000 0.0000 0.0000 17.9992 0.0000 -7.8081 17.2411 -41.2485 3.8538 -4.4548 24.0796 0.3549 6.3508 6.3902 5.4803 -2.7294 -176.6641 0.0097 0.0001 0.0000 -1.2803 57.0527 -1.5652 0.0000 24.9915 1.5955 -9.5353 7.3299 178.3624 -0.0088 0.0001 0.0001 7.3503 61.9588 8.6945 0.0000 28.9855 0.1924 
-0.4405 97.2356 -14.3633 16.4631 8.2901 6.0557 0.0000 0.0000 0.0000 0.0000 0.0000 0.0000 -23.9021 0.0000 0.0000 -270.0000 90.0000 0.0000 4.6785 -51.9605 -21.0070 -0.2713 -10.1824 3.1479 0.0000 0.0000 0.0000 4.4556 17.5008 8.6883 0.0000 18.0001 0.0000 0.0000 17.9987 -0.0008 0.0000 17.9996 5.4001 0.0000 18.0000 0.0000 0.0001 18.0000 0.0001 -22.7691 18.0024 -13.2938 -0.0003 17.9994 0.0003 -0.0001 18.0004 -0.0006 -11.4059 19.2849 -1.9366 0.0000 18.0000 0.0000 0.0000 17.9990 -0.0001 7.8155 17.2299 40.9626 -3.7945 -4.3942 -23.7934 -0.3550 6.3509 -6.3901 0.0000 0.0000 0.0000 15.1577 -19.5585 -6.8630 270.0001 90.0000 0.0000 116.5453 49.5829 -15.2310 0.0000 0.0000 -26.3653 0.0000 0.0000 0.0000 -4.4558 17.5007 -8.6881 0.0000 18.0000 0.0000 0.0000 17.9994 0.0002 0.0000 17.9999 -5.3999 0.0000 18.0000 0.0000 0.0000 18.0000 0.0000 22.7693 18.0026 13.2939 0.0000 17.9989 0.0001 -0.0001 17.9992 0.0002 11.4057 19.2849 1.9367 0.0000 18.0000 0.0000 0.0000 17.9992 0.0000 -7.8080 17.2412 -41.2485 3.8538 -4.4546 24.0794 0.3549 6.3508 6.3902 4.7701 -3.3733 -176.6673 0.0097 0.0001 0.0000 -0.8206 56.6924 -1.0015 0.0000 24.9834 1.6443 -9.5804 6.8526 178.5979 -0.0101 0.0001 0.0001 6.8786 61.4240 8.2357 0.0000 27.7978 0.0253 
-0.5711 97.5520 -14.9083 17.3678 8.4508 6.1059 0.0000 0.0000 0.0000 0.0000 0.0000 0.0000 -23.8428 0.0000 0.0000 -270.0000 90.0000 0.0000 4.1059 -56.7382 -16.2788 -0.0319 -10.5534 0.3611 0.0000 0.0000 0.0000 4.4556 17.5008 8.6883 0.0000 18.0001 0.0000 0.0000 17.9987 -0.0008 0.0000 17.9996 5.4001 0.0000 18.0001 0.0000 0.0001 18.0000 0.0001 -22.7691 18.0024 -13.2938 -0.0003 17.9994 0.0004 0.0000 18.0004 -0.0006 -11.4059 19.2849 -1.9366 0.0000 18.0000 0.0000 0.0000 17.9990 -0.0002 7.8154 17.2298 40.9625 -3.7945 -4.3941 -23.7934 -0.3550 6.3509 -6.3901 0.0000 0.0000 0.0000 13.9876 -19.7343 -6.6885 270.0001 90.0000 0.0000 121.2733 53.7454 -13.8592 0.0000 0.0000 -27.6436 0.0000 0.0000 0.0000 -4.4558 17.5007 -8.6881 0.0000 18.0000 0.0000 0.0000 17.9994 0.0002 -0.0001 17.9999 -5.3999 0.0000 18.0000 0.0000 0.0000 18.0000 0.0000 22.7693 18.0026 13.2939 0.0000 17.9989 0.0001 0.0000 17.9992 0.0002 11.4057 19.2849 1.9367 0.0000 18.0000 0.0000 0.0000 17.9991 0.0000 -7.8080 17.2411 -41.2484 3.8538 -4.4546 24.0794 0.3549 6.3508 6.3902 3.9426 -4.0795 -176.7122 0.0098 0.0001 0.0000 -0.3128 56.3800 -0.3753 0.0000 24.9818 1.6857 -9.8044 6.2857 178.7853 -0.0115 0.0001 0.0001 6.2522 60.7297 7.5946 0.0000 27.2251 0.0004 
